<?xml version="1.0" standalone="no"?>
<!DOCTYPE svg PUBLIC "-//W3C//DTD SVG 20010904//EN"
 "http://www.w3.org/TR/2001/REC-SVG-20010904/DTD/svg10.dtd">
<svg version="1.0" xmlns="http://www.w3.org/2000/svg"
 width="2469.000000pt" height="2469.000000pt" viewBox="0 0 2469.000000 2469.000000"
 preserveAspectRatio="xMidYMid meet">
<metadata>
Created by potrace 1.14, written by Peter Selinger 2001-2017
</metadata>
<g transform="translate(0.000000,2469.000000) scale(0.100000,-0.100000)"
fill="#000000" stroke="none">
<path d="M9087 24659 c-83 -25 -118 -43 -180 -94 -137 -111 -238 -308 -272
-529 -12 -77 -14 -1173 -14 -7128 -1 -3871 2 -7038 7 -7038 4 0 12 8 18 18 6
9 103 137 215 282 111 146 225 294 251 330 27 36 54 72 61 80 7 8 73 96 147
195 74 99 138 185 143 190 7 9 399 534 435 583 26 36 220 296 229 307 4 6 108
144 230 307 123 164 229 305 237 315 8 10 65 84 125 165 61 81 117 155 125
165 8 10 60 77 116 148 55 72 106 137 113 145 7 8 43 56 82 105 38 50 116 149
174 220 224 278 317 392 360 445 25 30 54 63 63 75 9 11 26 31 38 45 12 14 40
47 63 74 229 271 511 584 752 834 233 242 493 495 681 662 109 97 205 180 259
225 33 27 62 52 65 55 24 27 361 284 516 394 99 71 283 193 394 261 52 32 112
68 132 81 21 13 39 24 42 24 2 0 48 25 102 56 302 171 729 359 1044 459 47 15
103 33 125 40 l40 13 0 3393 c0 1867 -4 3419 -8 3449 -4 30 -8 62 -10 70 -2 8
-7 33 -12 55 -14 67 -73 203 -119 274 -79 120 -159 191 -271 237 l-70 29
-3185 1 c-3019 1 -3188 0 -3243 -17z"/>
<path d="M17830 20362 c-46 -6 -142 -32 -179 -49 -58 -27 -92 -53 -162 -124
-70 -70 -101 -118 -136 -209 -49 -123 -47 -76 -48 -1332 l0 -1188 45 6 c97 11
129 14 250 20 297 16 750 3 1058 -31 90 -10 138 -16 172 -20 19 -3 58 -8 85
-11 28 -3 59 -8 70 -11 11 -2 61 -10 110 -18 50 -8 101 -17 115 -20 14 -3 59
-11 100 -19 41 -8 107 -22 145 -31 39 -9 81 -19 95 -22 201 -37 806 -235 1064
-347 17 -7 60 -26 96 -41 226 -96 522 -245 770 -387 396 -228 736 -458 1169
-793 548 -424 1280 -1121 1890 -1800 35 -38 73 -79 85 -90 11 -11 31 -32 43
-48 l21 -27 -2 3032 c-1 2890 -2 3036 -19 3098 -34 121 -84 208 -172 295 -86
86 -160 130 -265 156 -45 11 -613 13 -3215 13 -1738 1 -3171 0 -3185 -2z"/>
<path d="M17323 16450 c-17 -5 -18 -287 -18 -7940 l0 -7935 24 -75 c36 -117
87 -206 162 -281 96 -95 196 -147 319 -164 25 -4 1460 -7 3190 -7 2341 0 3162
3 3210 12 204 36 380 207 453 438 l21 67 2 5100 2 5100 -59 93 c-32 50 -59 95
-59 99 0 3 -7 15 -17 25 -9 10 -21 27 -27 38 -22 40 -121 196 -153 242 -18 26
-33 50 -33 53 0 9 -54 90 -62 93 -5 2 -8 8 -8 13 0 12 -345 531 -511 769 -187
268 -482 666 -584 790 -16 20 -41 52 -55 70 -65 87 -441 537 -515 616 -5 6
-39 44 -75 84 -236 266 -723 751 -945 940 -27 24 -52 46 -55 49 -3 3 -57 49
-120 102 -910 758 -1818 1243 -2750 1468 -69 16 -141 33 -160 36 -19 3 -55 11
-80 16 -25 6 -61 12 -80 15 -19 2 -42 6 -50 9 -8 2 -34 6 -57 9 -24 4 -62 9
-85 12 -24 3 -57 7 -74 9 -18 2 -56 6 -85 9 -114 13 -148 16 -264 22 -154 8
-378 10 -402 4z"/>
<path d="M15955 16235 c-22 -7 -96 -31 -165 -53 -545 -172 -1114 -473 -1675
-884 -135 -99 -125 -91 -295 -227 -572 -454 -1176 -1057 -1861 -1857 -117
-137 -227 -267 -244 -288 -16 -22 -36 -44 -42 -51 -7 -7 -40 -48 -75 -92 -34
-43 -64 -80 -67 -83 -3 -3 -33 -39 -66 -80 -33 -41 -99 -122 -145 -180 -47
-58 -99 -123 -116 -145 -17 -22 -114 -146 -215 -276 -101 -129 -195 -250 -209
-268 -56 -75 -372 -488 -393 -516 -13 -16 -106 -140 -208 -275 -101 -135 -187
-249 -192 -255 -4 -5 -80 -107 -169 -225 -372 -495 -906 -1200 -918 -1210 -3
-3 -31 -39 -62 -80 -30 -41 -92 -122 -137 -179 l-81 -105 1 -4060 c0 -2234 4
-4088 9 -4121 18 -130 46 -227 96 -329 88 -179 235 -307 385 -337 37 -7 1019
-10 3209 -10 3446 0 3202 -4 3318 55 172 88 321 336 359 596 7 55 11 15540 3
15544 -3 2 -23 -2 -45 -9z"/>
<path d="M415 11801 c-193 -41 -354 -159 -396 -291 -15 -47 -19 -7899 -4
-7901 14 -2 102 8 144 16 9 1 41 6 71 10 30 4 64 9 75 11 11 3 36 7 55 10 31
5 149 25 220 38 14 3 63 12 110 21 47 9 96 19 110 21 14 3 82 18 152 34 70 16
137 31 150 34 13 2 86 21 163 41 525 139 1007 306 1472 511 117 52 214 94 217
94 2 0 32 16 65 35 34 19 62 34 64 33 13 -4 404 200 609 319 73 42 142 81 153
87 11 6 31 18 45 27 14 9 86 53 160 99 201 124 499 323 636 424 23 17 55 40
70 51 197 142 671 514 750 590 6 6 35 31 64 56 29 24 58 49 64 55 6 5 69 61
140 123 71 63 136 121 145 130 10 9 75 70 147 136 261 241 819 810 1070 1090
120 133 144 161 203 225 l50 55 1 1742 0 1742 -21 57 c-46 123 -201 233 -385
274 -87 19 -143 19 -3289 19 -2992 -1 -3205 -2 -3280 -18z"/>
<path d="M7310 7429 c-145 -161 -290 -319 -307 -337 -10 -10 -83 -87 -163
-171 -149 -157 -545 -552 -659 -657 -36 -32 -79 -72 -96 -89 -60 -56 -220
-202 -260 -236 -22 -19 -44 -39 -50 -45 -12 -13 -260 -225 -375 -320 -65 -54
-304 -242 -395 -311 -6 -5 -37 -28 -70 -53 -33 -25 -64 -48 -70 -53 -28 -21
-143 -104 -165 -119 -14 -9 -83 -57 -155 -107 -288 -199 -659 -428 -940 -581
-44 -24 -102 -55 -130 -70 -111 -61 -557 -280 -570 -280 -2 0 -37 -16 -78 -34
-87 -40 -275 -119 -397 -166 -47 -18 -94 -37 -105 -41 -86 -37 -406 -145 -650
-220 -53 -16 -239 -70 -255 -74 -8 -2 -87 -21 -175 -43 -180 -46 -363 -87
-475 -107 -41 -8 -86 -17 -100 -19 -82 -18 -130 -27 -165 -31 -22 -3 -51 -7
-65 -10 -13 -2 -42 -7 -65 -10 -22 -4 -80 -13 -130 -20 -50 -8 -112 -17 -140
-20 -27 -3 -59 -7 -70 -9 -11 -3 -22 -5 -25 -5 -8 -1 -4 -2811 4 -2850 28
-136 200 -269 403 -311 84 -17 249 -17 3308 -16 l3220 2 85 26 c47 15 111 41
143 59 76 41 162 125 190 186 l22 48 3 2745 c1 1510 1 3124 0 3588 l-3 843
-75 -82z"/>
</g>
</svg>
